HIERARCHY
ROOT ui
{
	 OFFSET 0 0 0
	 CHANNELS 3 XPosition YPosition Z Position
	 EndSite
	 {
	 OFFSET 0 -1 0
	 }
}
ROOT li
{
	 OFFSET 0 0 0
	 CHANNELS 3 XPosition YPosition Z Position
	 EndSite
	 {
	 OFFSET 0 -1 0
	 }
}
ROOT ul
{
	 OFFSET 0 0 0
	 CHANNELS 3 XPosition YPosition Z Position
	 EndSite
	 {
	 OFFSET 0 -1 0
	 }
}
ROOT ll
{
	 OFFSET 0 0 0
	 CHANNELS 3 XPosition YPosition Z Position
	 EndSite
	 {
	 OFFSET 0 -1 0
	 }
}
ROOT tt
{
	 OFFSET 0 0 0
	 CHANNELS 3 XPosition YPosition Z Position
	 EndSite
	 {
	 OFFSET 0 -1 0
	 }
}
ROOT tb
{
	 OFFSET 0 0 0
	 CHANNELS 3 XPosition YPosition Z Position
	 EndSite
	 {
	 OFFSET 0 -1 0
	 }
}
ROOT td
{
	 OFFSET 0 0 0
	 CHANNELS 3 XPosition YPosition Z Position
	 EndSite
	 {
	 OFFSET 0 -1 0
	 }
}
ROOT v
{
	 OFFSET 0 0 0
	 CHANNELS 3 XPosition YPosition Z Position
	 EndSite
	 {
	 OFFSET 0 -1 0
	 }
}
ROOT bn
{
	 OFFSET 0 0 0
	 CHANNELS 3 XPosition YPosition Z Position
	 EndSite
	 {
	 OFFSET 0 -1 0
	 }
}
MOTION
Frames: 29
Frame Time: 0.002
-0.01002132511138916	0.0016241370439529419	0		0.531072021484375	-2.315823486328125	0		-1.1477235107421875	0.033853527069091796	0		-0.7633754272460938	-2.26077001953125	0		1.556175537109375	-0.5066192016601563	0		3.1922041015625	0.08840012359619141	0		4.71072900390625	0.21075363159179689	0		5.6556875	0.12802578735351564	0		-0.2620443420410156	5.935955078125	0		
0.07995039367675781	0.005055747032165527	0		0.5665325927734375	-2.322843994140625	0		-1.0667340087890624	0.03858028793334961	0		-0.7587266235351563	-2.252211181640625	0		1.5680682373046875	-0.502528076171875	0		3.21301806640625	0.07711424255371094	0		4.70567138671875	0.20852134704589845	0		5.66351513671875	0.1374351043701172	0		-0.2480455780029297	5.94333642578125	0		
-1.5011300146579743E-4	0.006520096778869629	0		0.539083984375	-2.319093017578125	0		-1.069846435546875	0.03831138610839844	0		-0.728275390625	-2.2579365234375	0		1.558939453125	-0.4971559753417969	0		3.204246826171875	0.10421613311767577	0		4.707681640625	0.2152493896484375	0		5.659990234375	0.16454652404785156	0		-0.2161244354248047	5.94852685546875	0		
0.06573892974853515	0.005275960922241211	0		0.5486319580078125	-2.31774462890625	0		-1.0769954833984374	0.034121826171875	0		-0.7436674194335937	-2.252083984375	0		1.5557535400390625	-0.4978118591308594	0		3.193769287109375	0.07138603210449218	0		4.71152392578125	0.20700901794433593	0		5.6519228515625	0.1365328369140625	0		-0.268452392578125	5.934759765625	0		
-0.01529631233215332	0.006852847099304199	0		0.5261142578125	-2.326964599609375	0		-1.0840809326171874	0.030966005325317382	0		-0.7490904541015625	-2.2543154296875	0		1.543489013671875	-0.5093084411621094	0		3.1888857421875	0.08355123138427735	0		4.6944287109375	0.20009071350097657	0		5.64260400390625	0.13636776733398437	0		-0.2705987854003906	5.9344306640625	0		
0.057581966400146484	-0.006416636943817139	0		0.5497804565429687	-2.329705322265625	0		-1.0870443115234374	0.030794681549072264	0		-0.778459228515625	-2.26021240234375	0		1.546545654296875	-0.5019375915527344	0		3.187768310546875	0.06973365783691406	0		4.69148974609375	0.19907766723632814	0		5.65178515625	0.1150319595336914	0		-0.2386552276611328	5.93771875	0		
-0.01707911491394043	0.009190661430358887	0		0.5236969604492188	-2.32277978515625	0		-1.0818070068359376	0.03755536270141602	0		-0.7795853881835938	-2.257418212890625	0		1.55258447265625	-0.5055493469238281	0		3.173263671875	0.09615830993652344	0		4.69582568359375	0.21105902099609375	0		5.6484404296875	0.13921263122558594	0		-0.22555928039550782	5.94827490234375	0		
0.057185035705566406	0.006972294807434082	0		0.5377584838867188	-2.317306884765625	0		-1.08857080078125	0.03349932098388672	0		-0.7825902709960938	-2.257563720703125	0		1.543878662109375	-0.4999154357910156	0		3.189353271484375	0.07927119445800782	0		4.700044921875	0.20312991333007813	0		5.64358935546875	0.12901071166992187	0		-0.09425370025634766	5.96837109375	0		
-0.017411699295043947	0.004684996128082275	0		0.5158228759765625	-2.32532763671875	0		-1.0911319580078125	0.033424022674560544	0		-0.75148486328125	-2.263109130859375	0		1.535166259765625	-0.5072198486328126	0		3.197885986328125	0.08555660247802735	0		4.68750439453125	0.20250869750976563	0		5.63462353515625	0.12949803161621093	0		-0.24354693603515626	5.9360634765625	0		
0.042093719482421875	-0.003273590087890625	0		0.5282145385742187	-2.3227373046875	0		-1.0975662841796876	0.03043012237548828	0		-0.8030167846679688	-2.2545595703125	0		1.5327130126953126	-0.5075436096191406	0		3.171355712890625	0.0743673324584961	0		4.69104833984375	0.19577433776855468	0		5.64002197265625	0.12625497436523436	0		-0.2803539428710938	5.9333798828125	0		
-0.029126480102539064	-0.002503894090652466	0		0.5086898498535156	-2.328689208984375	0		-1.0997891845703125	0.030412281036376953	0		-0.7925374755859375	-2.26077392578125	0		1.5334903564453124	-0.5038526306152343	0		3.169136962890625	0.07394072723388671	0		4.68291943359375	0.20127967834472657	0		5.63548779296875	0.10964772796630859	0		-0.24796241760253906	5.93684130859375	0		
0.05289851379394531	0.002312227964401245	0		0.5125343627929687	-2.321899169921875	0		-1.15785400390625	0.029152622222900392	0		-0.8297097778320313	-2.25533544921875	0		1.5521898193359376	-0.5203450317382813	0		3.20105517578125	0.07013636016845703	0		4.688876953125	0.1996849365234375	0		5.63693603515625	0.12069318389892578	0		-0.26546990966796874	5.93898486328125	0		
-0.030891639709472656	0.008333189964294434	0		0.5275704345703125	-2.31621630859375	0		-1.0996544189453126	0.033398075103759764	0		-0.7567919921875	-2.259311767578125	0		1.5325382080078125	-0.5012824401855469	0		3.168476318359375	0.09124327850341797	0		4.682134765625	0.20733670043945313	0		5.63433056640625	0.14932020568847656	0		-0.23378810119628907	5.94551708984375	0		
0.04630329132080078	-0.0017315289974212647	0		0.49571014404296876	-2.317877685546875	0		-1.10537109375	0.03050288772583008	0		-0.7986475830078125	-2.260754150390625	0		1.5247325439453125	-0.5083289794921875	0		3.169471923828125	0.06596858215332031	0		4.6873759765625	0.19990507507324218	0		5.63441015625	0.12264096832275391	0		-0.2521829528808594	5.9367353515625	0		
-0.040253475189208986	-0.0056002001762390135	0		0.5258605346679688	-2.334326171875	0		-1.1068670654296875	0.030572404861450197	0		-0.7663345336914062	-2.265154052734375	0		1.5201519775390624	-0.5123740844726562	0		3.162071533203125	0.072865478515625	0		4.6718115234375	0.19382003784179688	0		5.62621240234375	0.12404595947265624	0		-0.2533311462402344	5.9367548828125	0		
0.03451419448852539	4.158340096473694E-4	0		0.4994933471679687	-2.32899169921875	0		-1.1081842041015626	0.03065618324279785	0		-0.8017108154296875	-2.26063427734375	0		1.538605712890625	-0.5276878662109376	0		3.181661376953125	0.06545502471923828	0		4.680501953125	0.19347966003417968	0		5.62526611328125	0.12361490631103515	0		-0.2864415283203125	5.93022314453125	0		
-0.038675411224365235	-0.0025734529495239256	0		0.5282907104492187	-2.326365478515625	0		-1.10528564453125	0.03369750213623047	0		-0.8009080810546875	-2.2575791015625	0		1.5267899169921875	-0.501558837890625	0		3.14980517578125	0.08678324127197265	0		4.67654150390625	0.20637126159667968	0		5.63154931640625	0.11787908172607423	0		-0.23911257934570312	5.94664013671875	0		
0.04442818069458008	0.0023675589561462404	0		0.5012726440429688	-2.323968017578125	0		-1.1062537841796876	0.03380125045776367	0		-0.8019530029296875	-2.257485595703125	0		1.5258038330078125	-0.5015432739257812	0		3.16946142578125	0.05846530532836914	0		4.68248486328125	0.19918803405761717	0		5.63085400390625	0.11767469024658203	0		-0.10759938812255859	5.9669423828125	0		
0.031602617263793945	6.101580262184143E-4	0		0.5134258422851562	-2.3230732421875	0		-1.1110926513671875	0.030965793609619142	0		-0.7709073486328125	-2.26481201171875	0		1.518897705078125	-0.5084186096191406	0		3.181997802734375	0.08328990173339844	0		4.67169091796875	0.19928532409667968	0		5.6302998046875	0.12103350830078125	0		-0.25567720031738284	5.936005859375	0		
-0.04512260818481445	-0.005271784782409668	0		0.4936392822265625	-2.330730712890625	0		-1.1117301025390625	0.031081716537475587	0		-0.7715869140625	-2.264702392578125	0		1.5151968994140625	-0.512310302734375	0		3.157215576171875	0.07265078735351563	0		4.67697509765625	0.19321475219726564	0		5.6269033203125	0.10554782104492187	0		-0.2562060241699219	5.93610595703125	0		
0.03237042236328125	-0.0072150111198425295	0		0.52212109375	-2.33102099609375	0		-1.112216064453125	0.03120213317871094	0		-0.8080714111328124	-2.2621015625	0		1.5177576904296874	-0.5082635192871093	0		3.156730224609375	0.07271781158447266	0		4.67057275390625	0.199343017578125	0		5.62655517578125	0.10561286163330078	0		-0.25661813354492186	5.9362158203125	0		
-0.03482036590576172	0.004802694797515869	0		0.49885409545898435	-2.323599609375	0		-1.17263623046875	0.02613609504699707	0		-0.8043672485351563	-2.257033447265625	0		1.5412447509765625	-0.5204816284179687	0		3.180248779296875	0.0624865837097168	0		4.6641220703125	0.19150389099121093	0		5.6321474609375	0.1297698974609375	0		-0.23981004333496095	5.94410400390625	0		
0.04194604873657227	0.002890192985534668	0		0.5266279296875	-2.323854248046875	0		-1.1087337646484374	0.03440303802490234	0		-0.804590576171875	-2.256904541015625	0		1.5232869873046875	-0.50112255859375	0		3.180319091796875	0.0835954818725586	0		4.67311083984375	0.20648533630371094	0		5.6319951171875	0.12994338989257812	0		-0.23999639892578126	5.94423046875	0		
-0.03917774963378906	0.0011156289577484131	0		0.4876162109375	-2.317197021484375	0		-1.112864501953125	0.03159310913085937	0		-0.7727838745117187	-2.2642001953125	0		1.517101318359375	-0.5079113159179688	0		3.14598876953125	0.06618130493164062	0		4.6699267578125	0.19964874267578125	0		5.62609033203125	0.106120361328125	0		-0.29025738525390626	5.93103955078125	0		
0.03478342819213867	-0.0037415339946746825	0		0.5194163818359375	-2.3334873046875	0		-1.112842529296875	0.031734710693359376	0		-0.8087347412109375	-2.261573974609375	0		1.51406884765625	-0.5117323608398437	0		3.156104248046875	0.07318183135986328	0		4.6758671875	0.19370237731933593	0		5.629044921875	0.1218255386352539	0		-0.2902277526855469	5.9311796875	0		
-0.04611149597167969	-0.0045035481452941895	0		0.4925812683105469	-2.329978515625	0		-1.1127178955078125	0.031881658554077145	0		-0.7726429443359375	-2.26391259765625	0		1.5231651611328125	-0.5137096557617188	0		3.162134033203125	0.06624356842041015	0		4.67007373046875	0.1999229736328125	0		5.6261943359375	0.1065911865234375	0		-0.2560318603515625	5.9358671875	0		
0.03916682815551758	-4.998219907283783E-4	0		0.49686331176757814	-2.32488330078125	0		-1.1025135498046874	0.030898990631103514	0		-0.8413001708984374	-2.253831298828125	0		1.529476806640625	-0.5066431884765625	0		3.16163623046875	0.08740058898925782	0		4.68518359375	0.19186451721191405	0		5.62635009765625	0.10683650207519531	0		-0.2747348327636719	5.9412734375	0		
-0.03939999008178711	0.009719568252563477	0		0.49918948364257815	-2.3227568359375	0		-1.1081544189453125	0.03513681411743164	0		-0.7680747680664063	-2.25965869140625	0		1.520821533203125	-0.5033707580566407	0		3.171643310546875	0.06541535949707031	0		4.67369189453125	0.20716921997070312	0		5.62530419921875	0.13653677368164063	0		-0.2554859924316406	5.93617333984375	0		
0.03581451034545898	-0.0031322970390319825	0		0.49549847412109377	-2.327545166015625	0		-1.1118111572265625	0.03235316848754883	0		-0.8056950073242187	-2.258985107421875	0		1.5212032470703125	-0.5032167053222656	0		3.1922001953125	0.07829336547851562	0		4.68098046875	0.20021981811523437	0		5.629779296875	0.1228033676147461	0		-0.25508460998535154	5.93633251953125	0		
